<svg width="195" height="50" viewBox="0 0 195 50" fill="none" xmlns="http://www.w3.org/2000/svg">
<path d="M32.7812 0.0921865C32.8274 0.0707402 32.9196 0.0245314 32.9687 -1.00136e-05C33.8077 1.51847 34.4962 3.11677 35.2771 4.66577C33.6634 4.68434 32.0496 4.69363 30.436 4.66577C31.2258 3.14751 31.9329 1.57994 32.7812 0.0921865Z" fill="#AEADAF"/>
<path d="M22.6215 9.02114C25.9749 7.27228 29.605 5.67398 33.478 5.8891C38.6602 6.11352 43.0556 9.16552 47.6261 11.271C50.122 12.3869 53.0328 13.5518 55.7162 12.3469C56.4907 12.9248 57.1639 13.6164 57.7509 14.3816C56.251 15.7126 54.2315 16.5271 52.212 16.149C48.3946 15.5127 45.1242 13.2967 41.6693 11.7046C38.6202 10.3059 35.356 9.01186 31.9349 9.29773C27.6194 9.65436 23.7588 11.8397 19.9688 13.7577C17.4424 14.9657 14.8235 16.4349 11.919 16.1891C10.4128 16.1214 9.07566 15.3252 7.96289 14.3663C8.56538 13.7055 9.13403 13.0046 9.84729 12.4607C11.0582 12.5651 12.2539 13.1092 13.4834 12.7864C16.7968 12.2823 19.6308 10.3981 22.6215 9.02114Z" fill="#AEAFB0"/>
<path d="M20.5816 24.1283C23.9166 20.7533 27.3162 17.4338 30.6205 14.0252C30.6081 21.2605 30.6512 28.4992 30.6019 35.7347C28.5026 33.9366 26.6675 31.8525 24.6728 29.9407C23.7475 28.9571 22.6902 28.0935 21.8481 27.0331C21.3716 26.3322 20.8737 25.6437 20.3389 24.986C20.4156 24.7001 20.4956 24.4142 20.5816 24.1283Z" fill="#AD1837"/>
<path d="M35.1376 14.0773C36.2811 15.3898 37.6612 16.4749 38.7492 17.8364C37.5935 17.1848 36.5729 16.3303 35.5464 15.4974C35.3344 17.8857 35.7615 20.2709 35.574 22.6592C35.4387 25.1182 35.5895 27.577 35.5033 30.0329C35.4418 31.453 35.7584 32.8486 35.7339 34.2684C36.0167 34.1026 36.3025 33.9366 36.5884 33.7736C36.4807 34.0626 36.3733 34.3516 36.2594 34.6405C35.949 35.0801 35.5433 35.4365 35.1745 35.8239C35.0668 28.5761 35.1438 21.3251 35.1376 14.0773Z" fill="#8D1E39"/>
<path d="M35.547 15.4973C36.5735 16.3301 37.5941 17.1847 38.7497 17.8365C41.2795 20.0494 43.4679 22.6437 45.9946 24.866C42.8716 28.2379 39.549 31.4314 36.26 34.6404C36.3739 34.3514 36.4813 34.0624 36.589 33.7735C36.3031 33.9364 36.0172 34.1025 35.7344 34.2685C35.759 32.8484 35.4424 31.4528 35.5038 30.0328C35.5901 27.577 35.4393 25.118 35.5746 22.659C35.7621 20.2707 35.3349 17.8855 35.547 15.4973Z" fill="#AE1837"/>
<path d="M11.3602 17.2004C12.1378 17.2128 12.9154 17.2219 13.6932 17.2312C16.2137 22.4472 18.814 27.6264 21.4205 32.8027C22.0075 34.0167 22.773 35.1693 23.0372 36.5125C21.9399 36.3004 21.6511 35.1509 21.1992 34.2964C18.8724 29.563 16.4472 24.8817 14.2095 20.1081C13.8562 19.349 13.4288 18.6298 12.9678 17.9351C12.8694 24.0148 13.0293 30.0978 12.8909 36.1713C12.7003 36.2297 12.3222 36.3466 12.1316 36.405C12.0733 30.1776 12.1133 23.9502 12.1226 17.7229C9.24856 23.1634 6.58679 28.7175 3.82664 34.2164C3.31635 35.0647 3.09813 36.4696 1.84717 36.4172C2.1976 35.5074 2.64002 34.6407 3.08574 33.7768C5.85519 28.2596 8.60937 22.73 11.3602 17.2004Z" fill="#AAA8A7"/>
<path d="M52.0249 17.2158C52.7935 17.2865 53.7647 16.9945 54.4163 17.3849C57.57 23.6676 60.748 29.9471 63.8741 36.2481C62.6753 36.5709 62.4695 35.1846 62.0021 34.4132C59.2112 28.8467 56.4665 23.2526 53.614 17.7168C53.5618 23.8979 53.7092 30.0853 53.5465 36.2605C52.8211 36.6907 52.7442 35.7073 52.7565 35.2678C52.7289 29.5014 52.8149 23.7321 52.7196 17.9657C49.6581 23.8489 46.7812 29.8394 43.7597 35.7471C43.566 36.1897 43.0527 36.2881 42.6655 36.4971C43.1358 34.7575 44.1716 33.2514 44.8909 31.6131C47.2084 26.7841 49.7779 22.0783 52.0249 17.2158Z" fill="#ABA8A7"/>
<path d="M19.7358 24.8723C19.9603 24.5681 20.2859 24.3589 20.5811 24.1286C20.4951 24.4144 20.415 24.7001 20.3383 24.986C20.8732 25.6437 21.3711 26.3324 21.8475 27.0331C21.0914 26.3908 20.0925 25.8343 19.7358 24.8723Z" fill="#994C65"/>
<path d="M0 37.3055C7.36469 37.281 14.7292 37.3301 22.0969 37.2872C23.1082 37.3239 24.2301 37.0749 25.1244 37.6929C24.181 38.1753 23.1542 38.5165 22.2966 39.1528C20.72 40.327 19.4321 41.8791 17.6768 42.8106C14.5879 44.6087 10.5427 44.6547 7.4445 42.8506C5.40667 41.7747 3.95274 39.9182 2.02855 38.698C1.35863 38.1846 0.0769412 38.3568 0 37.3055Z" fill="#ADAEB1"/>
<path d="M40.8491 37.3177C48.6379 37.2625 56.4266 37.3454 64.2185 37.2839C64.7195 37.3947 65.5433 37.0473 65.74 37.7358C64.8548 38.3166 63.7575 38.501 62.9399 39.1988C61.2279 40.5727 59.7033 42.2327 57.6747 43.1577C54.0569 44.9435 49.4741 44.3103 46.4095 41.7131C44.7004 40.3669 43.2498 38.3998 40.9568 38.0832C40.9289 37.8926 40.8768 37.5083 40.8491 37.3177Z" fill="#ADAEB1"/>
<path d="M21.9187 46.4805C25.2044 44.7807 28.1889 42.2388 31.9451 41.6578C34.1214 41.2859 36.2114 42.2264 38.1017 43.1917C40.9479 44.5563 43.3886 46.8217 46.5637 47.4394C46.5759 47.9652 46.5883 48.4907 46.6006 49.0163C45.0052 49.2869 43.3855 49.1578 41.7779 49.1761C35.9379 49.1792 30.101 49.1792 24.2638 49.1761C22.5426 49.164 20.8214 49.2438 19.1063 49.0932C19.1032 48.5338 19.1032 47.9742 19.1063 47.418C20.0745 47.2059 21.0489 46.9663 21.9187 46.4805Z" fill="#ADAEB1"/>
<path d="M114.565 14.2164C116.621 14.1242 118.696 14.0966 120.752 14.2288C121.515 14.9018 121.733 15.9593 122.172 16.8413C126.057 25.6751 129.884 34.5307 133.745 43.3736C134.274 44.56 134.897 45.719 135.156 47.0038C132.469 46.9945 129.783 47.0007 127.099 46.9945C125.212 43.1585 123.743 39.1319 121.963 35.2468C120.546 31.8165 119.182 28.3617 117.611 24.999C116.434 27.7316 115.281 30.4734 114.085 33.1966C111.036 34.2386 107.975 35.2559 104.886 36.1688C105.31 34.5952 106.134 33.1751 106.752 31.675C108.611 27.3659 110.606 23.1149 112.358 18.7593C113.154 17.2749 113.566 15.5841 114.565 14.2164Z" fill="#ADAEB1"/>
<path d="M192.816 27.9989C188.436 28.0389 184.053 28.002 179.672 28.0203C179.737 30.1596 179.549 32.3144 179.795 34.4476C184.145 34.4568 188.491 34.4659 192.837 34.4445C192.828 32.2959 192.865 30.1475 192.816 27.9989Z" fill="#AF1837"/>
<path d="M145.594 28.546C142.865 28.5922 140.132 28.5245 137.403 28.5891C137.056 26.2191 137.354 23.8094 137.215 21.4242C140.787 21.0276 144.411 21.4519 147.998 21.2089C148.766 20.2469 149.319 19.1251 150.162 18.2122C151.324 16.7797 152.916 15.8208 154.37 14.7266C146.28 14.6435 138.19 14.7235 130.1 14.6866C130.13 19.7921 130.041 24.8974 130.146 29.9999C130.773 31.4936 131.277 33.0797 132.168 34.4443C132.663 36.1227 133.428 37.7701 134.252 39.304C135.107 41.603 136.182 43.8192 137.166 46.0691C137.332 42.387 137.228 38.6922 137.224 35.0068C140.105 34.9792 142.982 34.9639 145.862 35.0161C145.597 32.8675 145.315 30.7098 145.594 28.546Z" fill="#AF1837"/>
<path d="M177.726 25.8935C177.702 24.3474 177.711 22.8012 177.748 21.2582C183.403 21.2861 189.062 21.2706 194.718 21.2644C194.714 19.0698 194.714 16.8752 194.714 14.6837C186.668 14.6899 178.624 14.7083 170.58 14.6775C170.568 18.4121 170.577 22.1466 170.574 25.8842C172.956 25.9149 175.341 25.8966 177.726 25.8935Z" fill="#AF1837"/>
<path d="M177.721 42.1073C177.705 37.4105 177.727 32.7109 177.711 28.0142C172.741 28.0235 167.771 28.0113 162.801 28.0204C162.822 30.1597 162.816 32.299 162.807 34.4383C165.371 34.4598 167.937 34.4815 170.501 34.42L170.513 34.4538C170.451 35.8277 170.498 37.2016 170.464 38.5755C170.178 38.8216 169.895 39.0705 169.618 39.3226C166.36 40.8377 162.321 41.1298 159.192 39.1503C155.436 36.8421 154.244 31.7856 155.384 27.7285C156.263 24.3719 159.085 21.5779 162.537 20.9785C164.571 20.7972 166.637 21.0678 168.527 21.8638C168.573 19.4233 168.576 16.9829 168.515 14.5453C164.181 13.7124 159.349 13.9366 155.568 16.4264C150.355 19.2666 147.134 25.3586 147.586 31.2756C147.543 33.8883 148.099 36.6177 149.513 38.843C149.615 39.6392 150.263 40.2476 150.687 40.8992C153.985 45.4022 159.81 47.6154 165.291 47.1635C169.717 46.9391 174.035 45.1226 177.321 42.1563C177.423 42.1442 177.619 42.1196 177.721 42.1073Z" fill="#AF1837"/>
<path d="M194.948 39.9925C189.917 40.0171 184.885 40.054 179.853 39.9801C179.62 41.0038 179.73 42.0549 179.611 43.0907C179.122 43.5026 178.529 43.7764 178.065 44.2159C177.557 44.5632 177.069 44.9382 176.583 45.3163C175.815 45.7925 175.034 46.2475 174.247 46.6933C181.157 46.7116 188.066 46.7116 194.979 46.6933C194.988 44.4587 195.034 42.224 194.948 39.9925Z" fill="#AF1837"/>
<path d="M120.912 38.1575C120.466 36.639 119.735 35.2282 119.231 33.7314C114.537 35.0929 109.966 36.8451 105.328 38.385L105.709 38.4527C104.345 38.4741 103.118 39.2057 101.821 39.5652C99.8079 40.3061 97.641 40.4381 95.52 40.2814C92.5078 39.9157 89.8429 38.0992 88.051 35.7016C87.1871 34.3184 86.4894 32.8123 86.2252 31.1926C85.7456 28.8381 86.3481 26.4558 87.2057 24.2674L87.2886 24.2029C88.0939 22.9888 88.9729 21.7993 90.1195 20.8802C92.9135 18.5165 96.9494 17.7173 100.429 18.8731C102.768 19.5831 104.698 21.2276 106.174 23.1363C107.265 20.9079 108.168 18.5963 109.241 16.3588C107.096 14.2102 104.308 12.7749 101.376 12.0526C100.957 11.9449 100.539 11.9265 100.118 11.9942L100.524 11.8374C97.4749 11.4501 94.2259 11.3486 91.3336 12.5228C90.3378 12.778 89.4065 13.2175 88.4812 13.6571L88.6349 13.7092C88.4352 13.7921 88.0324 13.9613 87.8327 14.0473C84.4425 16.1652 81.7498 19.3894 80.3697 23.1487L80.3759 23.2747C80.0316 24.1414 79.7212 25.0298 79.5952 25.9579C78.212 32.794 81.2211 40.3092 87.0797 44.1421C92.5907 48.1378 100.164 47.972 106.192 45.2733C111.356 43.644 116.44 41.766 121.61 40.1677C121.514 39.4638 121.425 38.6955 120.912 38.1575Z" fill="#AF1837"/>
</svg>
